<?xml version="1.0" encoding="utf-8"?>
<!-- Generator: Adobe Illustrator 19.0.0, SVG Export Plug-In . SVG Version: 6.00 Build 0)  -->
<svg version="1.1" id="Layer_1" xmlns="http://www.w3.org/2000/svg" xmlns:xlink="http://www.w3.org/1999/xlink" x="0px" y="0px"
	 viewBox="0 0 512 512" style="enable-background:new 0 0 512 512;" xml:space="preserve">
<g id="XMLID_1_">
	<path id="XMLID_6_" d="M256,128.5c-70.7,0-128.5,57.7-128.5,128.5S185.3,384.5,256,384.5S384.5,326.7,384.5,256
		S326.7,128.5,256,128.5z M256,0C115.4,0,0,115.4,0,256s115.4,256,256,256s256-115.4,256-256S396.6,0,256,0z M256,460.8
		c-112.6,0-204.8-92.2-204.8-204.8S143.4,51.2,256,51.2S460.8,143.4,460.8,256S368.6,460.8,256,460.8z"/>
</g>
</svg>
